<?xml version="1.0" encoding="UTF-8"?>
<svg enable-background="new 0 0 100 100" version="1.1" viewBox="0 0 100 100" xml:space="preserve" xmlns="http://www.w3.org/2000/svg"><path d="m89.12 85.756c-4.392-1.602-4.796 2.233-12.704-0.645l-15.48-5.634 15.479-5.635c7.911-2.875 8.31 0.957 12.706-0.643 1.754-0.639 2.875-3.036 2.234-4.796-0.639-1.757-1.079-1.595-1.716-3.354-0.642-1.76-0.201-1.918-0.843-3.675-0.639-1.761-3.037-2.876-4.794-2.233-4.394 1.596-2.238 4.793-10.146 7.672l-23.856 8.684-23.858-8.684c-7.909-2.878-5.75-6.076-10.145-7.674-1.756-0.639-4.153 0.478-4.793 2.237-0.643 1.755-0.202 1.916-0.84 3.674-0.64 1.756-1.081 1.6-1.723 3.355-0.638 1.76 0.481 4.155 2.238 4.796 4.396 1.599 4.794-2.236 12.704 0.642l15.48 5.634-15.48 5.635c-7.909 2.879-8.311-0.959-12.704 0.643-1.756 0.639-2.875 3.035-2.234 4.795 0.636 1.758 1.076 1.598 1.719 3.354 0.639 1.757 0.2 1.92 0.836 3.679 0.643 1.758 3.039 2.874 4.798 2.235 4.396-1.602 2.235-4.795 10.144-7.675l23.858-8.685 23.857 8.683c7.909 2.883 5.751 6.075 10.146 7.676 1.755 0.638 4.154-0.479 4.795-2.238 0.64-1.756 0.198-1.916 0.842-3.673 0.639-1.76 1.079-1.599 1.717-3.356 0.642-1.76-0.478-4.157-2.237-4.794z" fill="#f33a3a"/><path d="m50-8.709e-4c-13.255 0-24 10.745-24 24v21c0 2.2 1.323 5.221 2.939 6.713l7.121 6.574c1.617 1.492 3.39 4.288 3.939 6.213s2.8 3.5 5 3.5h10c2.2 0 4.45-1.575 5-3.5s2.322-4.721 3.939-6.213l7.121-6.574c1.619-1.492 2.941-4.513 2.941-6.713v-21c0-13.255-10.745-24-24-24zm-11.539 49c-3.865 0-6.461-3.232-6.461-6.545 0-3.314 3.134-5.455 7-5.455s7 2.141 7 5.455c0 3.313-3.672 6.545-7.539 6.545zm11.539 9c-2 0-3-1-3-3s2-6 3-6 3 4 3 6-1 3-3 3zm11.538-9c-3.865 0-7.538-3.232-7.538-6.545 0-3.314 3.134-5.455 7-5.455s7 2.141 7 5.455c0 3.313-2.596 6.545-6.462 6.545z" fill="#f33a3a"/></svg>
