<?xml version="1.0" encoding="UTF-8"?>
<svg version="1.1" viewBox="0 0 200 200" xmlns="http://www.w3.org/2000/svg">
 <defs>
  <radialGradient id="a" cx="11.9" cy="10.04" r="29.29" gradientTransform="translate(5.36 1.22) scale(5.8048)" gradientUnits="userSpaceOnUse">
   <stop stop-color="#fffffd" offset="0"/>
   <stop stop-color="#cbcbc9" offset="1"/>
  </radialGradient>
  <linearGradient id="b" x1="6.34" x2="22.22" y1="7.79" y2="25.88" gradientTransform="translate(5.36 1.22) scale(5.8048)" gradientUnits="userSpaceOnUse">
   <stop stop-color="#a0a0a0" offset="0"/>
   <stop stop-color="#fff" offset="1"/>
  </linearGradient>
  <radialGradient id="c" cx="23.38" cy="10.97" r="3.35" gradientTransform="matrix(32.041 0 0 33.03 -646.36 -262.27)" gradientUnits="userSpaceOnUse">
   <stop stop-color="#63dcff" offset="0"/>
   <stop stop-color="#00c5fe" stop-opacity=".18" offset="1"/>
  </radialGradient>
 </defs>
 <g fill-rule="evenodd">
  <circle cx="100" cy="100" r="97.71" fill="#6d6d6d" stroke="#656565" stroke-linecap="round" stroke-linejoin="round" stroke-width="4.59"/>
  <circle cx="99.69" cy="99.38" r="86.55" fill="url(#a)" stroke="url(#b)" stroke-linecap="round" stroke-linejoin="round" stroke-width="4.12"/>
  <path d="M43.63 54a75.03 75.03 0 0 1 58.7-28.78l.44 75.03z" fill="url(#c)" stroke="url(#c)" stroke-width="4.94"/>
  <circle cx="101.85" cy="100.47" r="12.61" fill="#f3f3f3" stroke="#000" stroke-linecap="round" stroke-linejoin="round" stroke-width="4.96"/>
 </g>
 <path d="m91.88 90.69-44.98-37.8" fill="none" stroke="#000" stroke-linecap="round" stroke-width="4.99"/>
 <path d="m78.07 135.87 14.76-22.44" fill="none" stroke="#000" stroke-linecap="round" stroke-width="9.97"/>
 <g transform="translate(-18.72 -12.64) scale(4.9869)" fill="#b6b9b1" fill-rule="evenodd">
  <circle transform="matrix(2.75 0 0 2.75 -22.3 -12.41)" cx="16.71" cy="7.69" r=".62"/>
  <circle transform="matrix(2.75 0 0 2.75 -22.3 14.81)" cx="16.71" cy="7.69" r=".62"/>
  <circle transform="matrix(2.75 0 0 2.75 -35.91 1.2)" cx="16.71" cy="7.69" r=".62"/>
  <circle transform="matrix(2.75 0 0 2.75 -8.7 1.2)" cx="16.71" cy="7.69" r=".62"/>
 </g>
</svg>
