<?xml version="1.0" encoding="UTF-8"?>
<svg version="1.1" viewBox="0 0 64 64" xmlns="http://www.w3.org/2000/svg">
 <defs>
  <linearGradient id="0" x2="0" y1="45.47" y2="-.599" gradientTransform="matrix(1.3112 0 0 1.3024 737.39 159.91)" gradientUnits="userSpaceOnUse">
   <stop stop-color="#ffc515" offset="0"/>
   <stop stop-color="#ffd55b" offset="1"/>
  </linearGradient>
 </defs>
 <g transform="matrix(1.0848 0 0 1.0848 -802.06 -173.91)">
  <path d="m797.94 212.01-25.607-48c-0.736-1.333-2.068-2.074-3.551-2.074s-2.822 0.889-3.569 2.222l-25.417 48c-0.598 1.185-0.605 2.815 0.132 4s1.921 1.778 3.404 1.778h51.02c1.483 0 2.821-0.741 3.42-1.926 0.747-1.185 0.753-2.667 0.165-4" fill="url(#0)"/>
  <path transform="matrix(1.052 0 0 1.052 796.53 161.87)" d="m-26.309 18.07c-1.18 0-2.135 0.968-2.135 2.129v12.82c0 1.176 0.948 2.129 2.135 2.129 1.183 0 2.135-0.968 2.135-2.129v-12.82c0-1.176-0.946-2.129-2.135-2.129zm0 21.348c-1.18 0-2.135 0.954-2.135 2.135 0 1.18 0.954 2.135 2.135 2.135s2.135-0.954 2.135-2.135c0-1.18-0.952-2.135-2.135-2.135z" fill-opacity=".75" stroke="#40330d"/>
 </g>
</svg>
